<svg id="Calque_1" data-name="Calque 1" xmlns="http://www.w3.org/2000/svg" viewBox="0 0 412.69 954.55"><defs><style>.cls-1{fill:#eae1e1;}</style></defs><title>Thomerlas</title><path class="cls-1" d="M-144.44,206.35C-144.44,92.57-237,0-350.79,0S-557.13,92.57-557.13,206.35c0,108.74,84.54,198.1,191.35,205.8,0,.18,0,.36,0,.54v13.54h-21.53a15,15,0,0,0-10.61,4.4,15,15,0,0,0-4.39,10.6,15,15,0,0,0,15,15h21.53v16.16h-4.92a15,15,0,0,0-10.61,4.39,15,15,0,0,0-4.39,10.61,15,15,0,0,0,15,15h4.92V939.55a15,15,0,0,0,15,15,15,15,0,0,0,15-15V887h122.11V857h-32.69V779.31h32.69v-30H-335.79V502.39h4.92a14.94,14.94,0,0,0,10.61-4.4,15,15,0,0,0,4.39-10.6,15,15,0,0,0-15-15h-4.92V456.23h21.53a15,15,0,0,0,10.61-4.39,15,15,0,0,0,4.39-10.61,15,15,0,0,0-15-15h-21.53V412.69c0-.18,0-.36,0-.54C-229,404.45-144.44,315.09-144.44,206.35Zm-191.35,573h59.42V857h-59.42Zm-15-396.62c-97.24,0-176.34-79.11-176.34-176.34S-448,30-350.79,30s176.35,79.11,176.35,176.35S-253.55,382.69-350.79,382.69Z" transform="translate(557.13)"/><rect class="cls-1" x="88.72" y="128.45" width="235.24" height="20"/><rect class="cls-1" x="196.34" y="131.1" width="20" height="197.85"/></svg>