<svg id="Calque_1" data-name="Calque 1" xmlns="http://www.w3.org/2000/svg" viewBox="0 0 412.69 954.55"><defs><style>.cls-1{fill:#eee;}</style></defs><title>ThomerlasWhite</title><path class="cls-1" d="M540,236.35C540,122.57,447.45,30,333.67,30S127.33,122.57,127.33,236.35c0,108.74,84.54,198.1,191.35,205.8,0,.18,0,.36,0,.54v13.54H297.14a15,15,0,0,0,0,30h21.53v16.16h-4.92a15,15,0,0,0,0,30h4.92V969.55a15,15,0,0,0,30,0V917H470.78V887H438.09V809.31h32.69v-30H348.67V532.39h4.92a15,15,0,1,0,0-30h-4.92V486.23H370.2a15,15,0,1,0,0-30H348.67V442.69c0-.18,0-.36,0-.54C455.47,434.45,540,345.09,540,236.35Zm-191.35,573h59.42V887H348.67Zm-15-396.62c-97.24,0-176.34-79.11-176.34-176.34S236.43,60,333.67,60,510,139.11,510,236.35,430.91,412.69,333.67,412.69Z" transform="translate(-127.33 -30)"/><polygon class="cls-1" points="323.96 128.45 323.96 148.45 216.34 148.45 216.34 328.95 196.34 328.95 196.34 148.45 88.72 148.45 88.72 128.45 323.96 128.45"/></svg>