<svg id="Calque_1" data-name="Calque 1" xmlns="http://www.w3.org/2000/svg" viewBox="0 0 331.54 331.53"><defs><style>.cls-1{fill:#eee;}</style></defs><title>user</title><path class="cls-1" d="M720,275.62c-91.41,0-165.77,74.36-165.77,165.76a165.77,165.77,0,0,0,331.54,0C885.77,350,811.41,275.62,720,275.62Zm0,311.53a145.35,145.35,0,0,1-102.14-41.86,104.42,104.42,0,0,1,204.28,0A145.35,145.35,0,0,1,720,587.15Zm-46.73-191.3A46.73,46.73,0,1,1,720,442.58,46.78,46.78,0,0,1,673.27,395.85ZM837.85,527.09a125,125,0,0,0-77.8-77.89,66.73,66.73,0,1,0-80.1,0,125,125,0,0,0-77.8,77.89,145,145,0,0,1-27.92-85.71c0-80.37,65.39-145.76,145.77-145.76S865.77,361,865.77,441.38A145,145,0,0,1,837.85,527.09Z" transform="translate(-554.23 -275.62)"/></svg>