<svg id="pion" xmlns="http://www.w3.org/2000/svg" viewBox="0 0 19.31 25.35"><defs><style>.cls-1{fill:#494949;}</style></defs><title>cavalier</title><path class="cls-1" d="M914.15,604.32v2.28a.76.76,0,0,0,.75.75h17.82a.76.76,0,0,0,.75-.75v-2.28Z" transform="translate(-914.15 -581.99)"/><path class="cls-1" d="M915.64,600.61v2.23H932v-2.23a.74.74,0,0,0-.74-.74H916.38A.74.74,0,0,0,915.64,600.61Z" transform="translate(-914.15 -581.99)"/><path class="cls-1" d="M916.62,598.38h13.65c-.94-3.44-4.51-5.08-5.59-6.43-.32-.4-.25-.57-.19-.69s1.43-.81,4.2.51a.73.73,0,0,0,.95-.27l1.49-2.38a.74.74,0,0,0-.24-1l-5.45-3.41L926,583a.74.74,0,0,0-.81-1c-5.56.79-11,4.08-11,9.7,0,2.88,1.6,4.89,2.47,6.68Z" transform="translate(-914.15 -581.99)"/></svg>